<?xml version="1.0" encoding="utf-8"?>
<!-- Generator: Adobe Illustrator 20.0.0, SVG Export Plug-In . SVG Version: 6.00 Build 0)  -->
<svg version="1.1" id="Layer_1" xmlns="http://www.w3.org/2000/svg" xmlns:xlink="http://www.w3.org/1999/xlink" x="0px" y="0px"
	 viewBox="0 0 474 347.8" style="enable-background:new 0 0 474 347.8;" xml:space="preserve">
<style type="text/css">
	.st0{fill:#FFFFFF;}
</style>
<g>
	<path class="st0" d="M309.9,214c-1.3-1.3-3.3-1.3-4.6,0l-11.9,11.6L281.7,214c-1.3-1.3-3.3-1.3-4.6,0c-1.3,1.3-1.3,3.3,0,4.6
		l11.6,11.6l-11.9,11.6c-1.3,1.3-1.3,3.3,0,4.6c0.7,0.7,1.7,1,2.3,1s1.7-0.3,2.3-1l11.6-11.6l11.6,11.6c0.7,0.7,1.7,1,2.3,1
		c0.7,0,1.7-0.3,2.3-1c1.3-1.3,1.3-3.3,0-4.6L298,230.2l11.6-11.6C310.9,217.3,310.9,215,309.9,214z"/>
	<path class="st0" d="M240.3,160.6v-33.5c0-2-1.3-3.3-3.3-3.3s-3.3,1.3-3.3,3.3v33.5c-4.6,1.3-8.6,5-9.6,9.9h-23.5
		c-2,0-3.3,1.3-3.3,3.3c0,2,1.3,3.3,3.3,3.3h23.9c1.7,5.6,6.6,9.6,12.6,9.6c7.3,0,13.3-6,13.3-13.3
		C250.2,167.3,245.9,162.3,240.3,160.6z M237,180.2c-3.6,0-6.6-3-6.6-6.6s3-6.6,6.6-6.6s6.6,3,6.6,6.6S240.6,180.2,237,180.2z"/>
	<path class="st0" d="M237,107.3c2,0,3.3-1.3,3.3-3.3v-3.3c0-2-1.3-3.3-3.3-3.3s-3.3,1.3-3.3,3.3v3.3
		C233.7,105.6,235,107.3,237,107.3z"/>
	<path class="st0" d="M237,239.8c-2,0-3.3,1.3-3.3,3.3v3.3c0,2,1.3,3.3,3.3,3.3s3.3-1.3,3.3-3.3v-3.3
		C240.3,241.2,239,239.8,237,239.8z"/>
	<path class="st0" d="M306.6,176.9h3.3c2,0,3.3-1.3,3.3-3.3s-1.3-3.3-3.3-3.3h-3.3c-2,0-3.3,1.3-3.3,3.3S304.6,176.9,306.6,176.9z"
		/>
	<path class="st0" d="M167.4,170.2h-3.3c-2,0-3.3,1.3-3.3,3.3s1.3,3.3,3.3,3.3h3.3c2,0,3.3-1.3,3.3-3.3S169.4,170.2,167.4,170.2z"/>
	<path class="st0" d="M286,127.5c1,0,1.7-0.3,2.3-1l2.3-2.3c1.3-1.3,1.3-3.3,0-4.6c-1.3-1.3-3.3-1.3-4.6,0l-2.3,2.3
		c-1.3,1.3-1.3,3.3,0,4.6C284.4,127.2,285.4,127.5,286,127.5z"/>
	<path class="st0" d="M185.3,220.3l-2.3,2.3c-1.3,1.3-1.3,3.3,0,4.6c0.7,0.7,1.7,1,2.3,1c0.7,0,1.7-0.3,2.3-1l2.3-2.3
		c1.3-1.3,1.3-3.3,0-4.6C188.6,219,186.6,219,185.3,220.3z"/>
	<path class="st0" d="M187.9,119.5c-1.3-1.3-3.3-1.3-4.6,0c-1.3,1.3-1.3,3.3,0,4.6l2.3,2.3c0.7,0.7,1.7,1,2.3,1c0.7,0,1.7-0.3,2.3-1
		c1.3-1.3,1.3-3.3,0-4.6L187.9,119.5z"/>
	<path class="st0" d="M336.4,173.9c0-54.7-44.7-99.4-99.4-99.4s-99.4,44.7-99.4,99.4s44.7,99.4,99.4,99.4c11.6,0,23.2-2,34.1-6
		c6.3,4,13.9,6,22.2,6c23.9,0,43.1-19.2,43.1-43.1c0-8-2.3-15.6-6-22.2C334.4,197.1,336.4,185.5,336.4,173.9z M264.8,262.4
		c-8.9,3-18.2,4.3-27.8,4.3c-51,0-92.8-41.8-92.8-92.8S186,81.1,237,81.1s92.8,41.8,92.8,92.8c0,9.6-1.3,18.9-4.3,27.8
		c-0.3-0.3-0.7-0.7-0.7-1c-0.7-0.7-1-1-1.7-1.7c-0.7-0.7-1-1-1.7-1.3c-0.7-0.3-1-1-1.7-1.3c-0.7-0.3-1.3-1-2-1.3
		c-0.7-0.3-1-0.7-1.7-1c-0.7-0.3-1.3-1-2-1.3c-0.7-0.3-1.3-0.7-1.7-1c-0.7-0.3-1.3-0.7-2-1c-0.7-0.3-1.3-0.7-2-0.7
		c-0.7-0.3-1.3-0.7-2-0.7c-0.7-0.3-1.7-0.3-2.3-0.7c-0.7,0-1.3-0.3-1.7-0.3c-1-0.3-2-0.3-3-0.3c-0.3,0-1,0-1.3-0.3
		c-2-0.7-3.3-0.7-5-0.7c-23.9,0-43.1,19.2-43.1,43.1c0,1.7,0,3,0.3,4.6c0,0.3,0,1,0.3,1.3c0,1,0.3,2,0.3,3c0,0.7,0.3,1.3,0.3,1.7
		c0.3,0.7,0.3,1.7,0.7,2.3c0.3,0.7,0.3,1.3,0.7,2c0.3,0.7,0.7,1.3,0.7,2c0.3,0.7,0.7,1.3,1,2c0.3,0.7,0.7,1.3,1,1.7
		c0.3,0.7,0.7,1.3,1.3,2c0.3,0.7,0.7,1,1,1.7c0.3,0.7,1,1.3,1.3,2c0.3,0.7,1,1,1.3,1.7c0.3,0.7,1,1,1.3,1.7c0.7,0.7,1,1,1.7,1.7
		C264.2,261.7,264.5,262,264.8,262.4z M293.3,266.7c-7.3,0-14.2-2.3-19.9-6c-1.3-0.7-2.3-1.7-3.3-2.7c-0.3-0.3-0.3-0.3-0.7-0.7
		c-0.7-0.7-1.7-1.3-2.3-2.3c-0.3-0.3-0.7-0.7-1-1c-0.7-0.7-1.3-1.3-1.7-2c-0.3-0.3-0.7-0.7-1-1.3c-0.7-1-1.3-2-2-3
		c0-0.3-0.3-0.7-0.3-0.7c-0.7-1-1-2-1.7-3.3c-0.3-0.3-0.3-1-0.3-1.3c-0.3-1-0.7-1.7-1-2.7c0-0.3-0.3-1-0.3-1.3c-0.3-1-0.3-2-0.7-3
		c0-0.3,0-1-0.3-1.3c0-1.3-0.3-2.7-0.3-4.3c0-20.2,16.2-36.5,36.5-36.5c1.3,0,3,0,4.3,0.3c0.3,0,1,0,1.3,0.3c1,0,2,0.3,3,0.7
		c0.3,0,1,0.3,1.3,0.3c1,0.3,1.7,0.7,2.7,1c0.3,0,1,0.3,1.3,0.3c1,0.3,2.3,1,3.3,1.3c0.3,0,0.7,0.3,1,0.3c1,0.7,2,1.3,3,2
		c0.3,0.3,0.7,0.7,1.3,1c0.7,0.7,1.3,1,2,1.7c0.3,0.3,0.7,0.7,1,1c0.7,0.7,1.7,1.7,2.3,2.3c0.3,0.3,0.3,0.3,0.7,0.7
		c1,1,1.7,2.3,2.7,3.3c3.6,5.6,6,12.6,6,19.9C329.8,250.4,313.5,266.7,293.3,266.7z"/>
</g>
</svg>
