<?xml version="1.0" encoding="utf-8"?>
<!-- Generator: Adobe Illustrator 20.0.0, SVG Export Plug-In . SVG Version: 6.00 Build 0)  -->
<svg version="1.1" id="Layer_1" xmlns="http://www.w3.org/2000/svg" xmlns:xlink="http://www.w3.org/1999/xlink" x="0px" y="0px"
	 viewBox="0 0 474 347.8" style="enable-background:new 0 0 474 347.8;" xml:space="preserve">
<style type="text/css">
	.st0{fill:#FFFFFF;}
</style>
<g>
	<rect x="13.9" y="266.5" class="st0" width="446.2" height="6.3"/>
	<rect x="111" y="138" class="st0" width="2.3" height="131.7"/>
	<rect x="241.8" y="125.7" class="st0" width="2.3" height="147.1"/>
	<rect x="314.1" y="198.5" class="st0" width="2.3" height="71.3"/>
	<rect x="340.6" y="193.3" class="st0" width="2.3" height="76.4"/>
	<rect x="414.5" y="188.8" class="st0" width="2.3" height="80.8"/>
	<rect x="393.8" y="133.9" class="st0" width="2.3" height="137.5"/>
	<rect x="288.7" y="89.9" class="st0" width="2.3" height="176.6"/>
	<rect x="181.8" y="154.1" class="st0" width="2.3" height="115.6"/>
	<rect x="68.1" y="203.5" class="st0" width="2.3" height="66.2"/>
	<rect x="90.1" y="166.4" class="st0" width="2.3" height="102"/>
	<rect x="127.3" y="196.7" class="st0" width="2.3" height="73"/>
	<rect x="147" y="220.3" class="st0" width="2.3" height="49.4"/>
	<rect x="266.5" y="102.3" class="st0" width="2.3" height="166.4"/>
	<rect x="214.9" y="93.8" class="st0" width="2.3" height="175.9"/>
	<rect x="366.4" y="164.6" class="st0" width="2.3" height="107.6"/>
	<rect x="449.3" y="199.3" class="st0" width="2.3" height="70.5"/>
	<path class="st0" d="M277,248.4c-12.7,0-26.4-0.1-41.3-0.2c-94.8-0.7-191.5-3.8-194.7-4c-1.1-0.1-3.1,0-5.4,0c-1,0-2,0.1-3,0.1
		c-0.2,0-0.4,0-0.6,0l0,0c-8.4,0.2-14.8-0.2-17.5-2.8l2.6-6.9c1.7,1.7,9.9,1.7,15.4,1.6c2.8-0.1,5.2-0.2,6.2-0.9l0.1-0.1
		c5.1-1.4,14.3-11.1,23.3-25.2c7.5-11.7,13.7-22.5,22.1-37.1c15-26.2,29.2-43.7,36.3-40c14.7,7.7,12.4,24.1,11.2,39.5l-0.1,1.1
		c-1.1,13.5-0.4,29.7,3.5,35.5c6.4,9.5,20.2,7,27.6,2.3c3.3-2.1,7.2-5.4,11.2-9.4c-3.3-7.3-5-17.4-4.5-26.8
		c0.5-8.8,2.8-16.4,6.5-21.4c3.1-4.1,8.6-7.9,13.5-6.5c2.9,0.8,5.2,3.4,6.6,7.4c2.7,7.7,0.7,17.5-1.1,24.2
		c-2.3,8.6-7.4,17.1-13.2,24.2c1.7,1.7,3.6,2.6,5.6,2.7c0.1,0,0.2,0,0.3,0c6.9,0,14.5-8.8,19.4-17.2c2.8-4.8,6.8-9.8,11-15.1
		c8.6-10.8,18.4-23,19-34.6c0-0.3,0-0.5,0-0.8c-2.4,3-3.7,6.4-5,9.6c-2.4,6.1-5,12.5-13.5,12c-5.8-0.3-11.2-5.3-15.3-14
		c-3.7-7.9-5.7-17.8-5.6-27.2c0.2-10.7,4.2-20,11.1-25.6c7-5.7,15.3-5.9,20.2-0.5c6.8,7.6,11.1,18.3,12.7,31
		c8.8-9.3,17.9-18.8,27.5-26.3c0.5-0.4,1.1-0.9,1.8-1.5c12-9.8,23.9-18.3,30-14.7c1.6,1,2.8,2.7,3.4,5.2c3.7,14.8,4.9,86.5,4.4,99.7
		c0,0.3,0,0.7,0,1c0.6,0.7,1.2,1.4,1.9,2c19.5,19.2,37.3-4.6,54.5-27.6c3.7-5,7.3-9.7,10.8-14c12.6-15.1,29.2-31.9,46.5-27.5
		c6.2,1.6,15.9,8.9,18.2,20.3c2.5,12.5-3.4,23.1-10.3,28.1c-3.3,2.4-9,2.5-15.6,2.6c-8.6,0.1-20.5,0.3-22.2,7.6
		c-0.6,2.7-0.2,3.6,0,3.9c0.5,1.1,2.7,3.6,10.8,3.4c5.6-0.1,11.8-1.4,16.3-2.4c2.7-0.6,6.8-0.9,7.9-1c7.2-0.1,11.6,1.2,17.4,3.9
		c5.5,2.5,7.2,8.3,7.7,12.6c1.5,14-7.8,32.9-13.2,39.1C437.2,240.4,430.3,248.4,277,248.4z M50.1,236.4
		c24.7,0.8,105.1,3.1,185.5,3.7c55.9,0.4,101.1,0,134.4-1.2c55.7-2.1,65.1-6.2,66.6-7.8c5.1-5.9,12.1-22.2,11.1-31.2
		c-0.2-1.9-0.9-4.7-4.1-6.2c-5.3-2.4-11.6-3.7-18.2-3.6c-0.8,0-2.8,0.4-5,0.9c-13.6,2.9-27.3,5-31.7-3.9c-1.1-2.2-2.1-6-0.8-11.8
		c2.9-12.6,15.7-12.8,26.9-12.9c5.5-0.1,11.1-0.1,13.5-1.8c1-0.7,9.7-7.4,7.5-18.2c-1.4-6.9-8.6-13.4-14.2-14.8
		c-15.4-3.9-30.8,11.8-42.6,26c-3.4,4.1-6.9,8.8-10.6,13.7c-8.8,11.8-17.9,24-27.8,31c-11.7,8.2-22.4,7.4-32.6-2.6c0,0,0,0,0,0
		c-1.4,9.8-4.3,20.5-9.4,27.1c-3.8,4.9-8.4,6.9-13.3,5.8c-9.7-2.3-17-10.5-19.1-21.5c-1.8-9.7,0.6-20,6.8-28.9
		c5.3-7.7,12-10.3,19.3-7.6c4.9,1.9,8.4,5.9,11.6,10.1c0.2-22-1.4-80.3-4.1-91.4c0-0.2-0.1-0.4-0.4-0.6c-0.9-0.5-3.7-1.1-11.9,4
		c-5.3,3.3-10.7,7.7-13.9,10.4c-0.8,0.6-1.4,1.2-1.9,1.5c-9.7,7.6-19.1,17.5-28.1,27c-0.3,0.4-0.7,0.7-1,1.1c0,2.3,0,4.7-0.2,7.2
		c-0.9,15.1-11.6,28.5-21,40.3c-4.1,5.1-7.9,9.9-10.5,14.2c-2.7,4.7-12.4,19.8-23.1,19.8c-0.1,0-0.3,0-0.4,0c-3.7-0.1-7-2.1-9.9-5.9
		c-4.5,4.8-9.1,8.6-12.8,10.9c-8.2,5.2-24.5,8.7-33-3.9c-7-10.4-5.6-35.1-5.1-42.4l0.1-1.1c1.4-17.1,1.6-26.3-7.6-30.7
		c-3.5-1.7-18.3,20.8-33.5,44.2C70.8,207.6,55.5,231.2,50.1,236.4z M286.9,177.4c-3.9,0-7.4,2.2-10.4,6.5c-4.7,6.7-6.5,14-5.3,20.5
		c1.5,7.9,7.4,14.1,14.9,15.9c3.5,0.8,6.7-0.5,9.4-4.1c4.4-5.8,7.1-16.5,8-26c-0.5-0.7-1.1-1.4-1.6-2.1c-3.4-4.4-6.3-8.3-10.7-9.9
		C289.8,177.7,288.3,177.4,286.9,177.4z M187.4,154.9c-2.9,0-6.1,2.3-8.1,4.9c-2.7,3.6-4.3,9.2-4.7,15.8c-0.4,7.7,0.9,15.7,3.6,21.5
		c5.5-6.5,10.3-14.2,12.2-21.6c2.1-7.9,2.5-13.7,1.3-17.1c-0.7-1.9-1.7-3-3.1-3.5C188.3,155,187.8,154.9,187.4,154.9z M220.5,96.5
		c-2.9,0-6.1,1.2-9,3.6c-2.5,2-8.2,7.8-8.3,18.5c-0.2,14.8,6.7,32.4,15.9,32.9c5.6,0.3,6.8-2.6,9-8.3c1.6-4.1,3.7-9.2,7.9-13.7
		c0.4-0.5,0.9-0.9,1.3-1.4c-0.7-9.9-3.4-20.9-10.9-29.3C225,97.3,222.9,96.5,220.5,96.5z"/>
	<g>
		<path class="st0" d="M229.6,98.7c-1.1-1.2-6.4-4.9-8.4-4.9c-2.7,0-8.1,1.5-10.7,3.6c-2.2,1.7-8.6,12.2-8.8,21.3
			c-0.1,6.7,4.4,14.8,7.3,19.9c2.9,5.1,6.4,9.7,10.1,9.9c0.3,0,0.5,0,0.7,0c3.9,0,4.6-1.7,6.7-6.9c1.6-4.1,5.7-12.1,10.2-16.8
			c0.1-0.1,0.5-0.5,0.6-0.6C236.4,113.6,235.2,105,229.6,98.7z M225.6,140.6c-2,5-2.4,6.1-5.7,6.1c-0.2,0-0.5,0-0.7,0
			c-3.3-0.2-6.2-4.2-9.2-9.3c-3-5.1-7.2-12.3-7-18.6c0.3-10.5,6.1-18.2,8.1-19.8c2.4-1.9,7.6-3.4,10.1-3.4c1.8,0,6.9,3.5,7.8,4.5
			c5.1,5.7,7.3,12,8.4,21.5C232.8,126.6,227.2,136.5,225.6,140.6z"/>
	</g>
	<g>
		<path class="st0" d="M394.9,178.3C395,178.4,395.1,178.4,394.9,178.3L394.9,178.3z"/>
		<path class="st0" d="M439.4,133.1c-3.9-10.4-11-17-16.4-18.4c-2-0.5-4.1-0.8-6.2-0.8c-16.2,0-31.3,15.6-42.6,29.2
			c-3.6,4.3-7.1,9-10.9,14.1c-12.3,16.5-25,33.5-37.8,33.5c-2.2,0-5.1-0.8-7.9-2.7c-3.1-2-6.2-5-8.4-7.2c-0.1-0.1-1-80.3-4.8-95.6
			c-0.9-3.7-2.6-8.6-6.5-10.2c-3.9-1.6-17.8,7.7-28,16.1l-0.1,0.1c-0.7,0.6-1.3,1.1-1.7,1.4c-7.9,6.2-17.7,16.6-26.8,26.1
			c-0.7-6.5-4.1-23.6-10.3-30.4c-2.8-3.1-6.5-4.8-10.6-4.8c-4.2,0-8.7,1.8-12.6,4.9c-7.9,6.4-9.7,16.9-9.9,29.4
			c-0.1,10.5,1.3,20.4,5.8,28.6c5.4,9.9,7.6,11,14.3,11.4c0.6,0,5.9,0,6.5,0c-1.4,1.8-6.8,10.1-8.2,11.8
			c-4.3,5.4-8.4,10.6-11.4,15.6c-4.3,7.4-11,15.4-16.9,15.7c-2.9-0.3-4.1-1.2-3.8-3.4c-1,2.4-1,4.1,1.1,4.8c0.7,0.3,1.4,0.4,2.2,0.5
			c0.1,0,0.2,0,0.2,0c6.3,0,13.5-8.4,18.1-16.3c2.9-4.9,6.9-10,11.2-15.4c2.3-2.9,7.1-10.8,9.5-14.1c-1.3,0.5-17.6-2.2-22-11.6
			c-3.9-8.4-5.9-16.8-5.8-26.8c0.2-11.8,1.9-22.3,9.4-28.4c3.8-3.1,8.1-4.7,12.1-4.7c3.9,0,7.4,1.5,9.9,4.4
			c6.4,7.1,8.3,20.3,10.3,32c8.8-9.2,19.3-20.7,27.9-27.5c0.4-0.3,1-0.8,1.7-1.4l0.1-0.1c10.1-8.3,24.1-17.7,27.5-15.9
			c3.4,1.8,4.6,5.8,5.4,9c3.8,15.2,4.4,80.4,4,95.6c0.3,0.3,4.3,3.7,4.6,4c4.5,4.4,8.6,7,13.7,7c13.2,0.1,26.1-17.3,38.6-34
			c3.8-5,7.3-9.8,10.8-14c11.2-13.4,26-28.8,41.9-28.8c2,0,4,0.3,6,0.7c6.1,1.6,14.5,10.9,17.3,24l1.1,7.7
			C441.2,148,442.2,140.6,439.4,133.1z"/>
		<path class="st0" d="M392.7,176.5c0.1-1,0.4-2.4,0.9-3.6C391.7,174.2,391.9,175.5,392.7,176.5z"/>
		<path class="st0" d="M184.4,197.5c0.9-2.2,2.7-5,4.6-7.9C186.4,192.5,184.1,195.3,184.4,197.5z"/>
		<path class="st0" d="M197.7,151.6c-1.9-5.3-3.8-8.1-7.6-9.2c-0.9-0.3-1.8-0.4-2.7-0.4c-5.4,0-10.5,4.3-13.3,7.9
			c-4.3,5.8-4.8,18.8-4.6,28.7c0.2,8.8,7.9,13.4,0.4,21.6c-2.9,2.7-5.7,5-8.1,6.5c-3.7,2.3-8.8,3.8-13.2,3.8
			c-3.6,0-8.4-0.9-11.3-5.2c-2.2-3.3-7.1-14.3-5.8-30.3l0.1-1.1c0.5-6.5,2.3-12.9,2.2-20.6l-1,0c0.1,7.5-1.8,13.8-2.3,20.3l-0.1,1.1
			c-1.2,14.8,3.3,27.6,6.2,31.9c3.1,4.7,8.3,5.7,12.1,5.7c4.6,0,9.8-1.5,13.6-3.9c2.8-1.8,6-4.4,9.3-7.6c5.4-5.7-0.6-15-0.7-24.1
			c-0.1-8.4,0.1-20.1,4.1-25.5c2.6-3.5,7.4-7.5,12.5-7.5c0.9,0,1.7,0.1,2.5,0.4c3.5,1,5.5,3.3,6.9,8.3c1.7,6.2-1.5,15.6-3.4,22.9
			c-0.8,3.1-2.4,10.9-4.5,14.2c2.3-2.6,3.7-5.3,4.5-5.6C196.4,177.5,200.2,158.6,197.7,151.6z"/>
	</g>
	<g>
		<path class="st0" d="M303.2,189.2c-1.2,8.9-6.5,19.5-9.5,23.4c-2,2.6-4.4,3.6-7,3c-6.2-1.5-14.8-10.7-15.9-16.6c0-0.1,0-0.1,0-0.2
			l-1.4,0.1c0,0.2,0,0.4,0.1,0.7c1.3,6.7,10.4,16.3,17.1,17.9c0.6,0.1,1.1,0.2,1.7,0.2c2.3,0,4.4-1.2,6.3-3.6
			c3.9-5.1,8.7-15.6,9.7-23.4L303.2,189.2z"/>
	</g>
	<g>
		<path class="st0" d="M267,201.2c-0.2-8.8-0.5-17.8,4.9-25.6c4.3-6.1,9.5-9.4,15-9.4c1.9,0,3.9,0.4,5.9,1.1
			c3.8,1.4,9.9,7.2,12.5,10.2c0-0.9,0-1,0-2c0,0-9.4-9-12.2-10c-2.1-0.8-4.1-1.2-6.2-1.2c-5.9,0-11.3,3.4-15.8,9.9
			c-5.7,8.2-5.5,17.8-5.3,27.1c0,0.1,0,0.2,0,0.4l1.1-0.3C267,201.3,267,201.2,267,201.2z"/>
		<path class="st0" d="M448.7,197.4c-0.1-0.9-0.8-3.8-2.9-5.2l-0.9,1.8c0.2,0.1,0.2,0.6,0.4,0.7c1.8,0.8,2.2,3.5,2.3,4.2
			c0.6,5.9-8.7,25.9-11.6,27.4c-1.9,1-4.3,2.3-12.8,3.4c-11.5,1.5-29.3,3.1-53,4c-24.5,0.9-55.8,1.4-93,1.4c-13,0-26.9-0.1-41.3-0.2
			c-80.4-0.6-166.2-3-185-3.5c0.1-0.1,0.2-0.2,0.3-0.3c-0.6,0.7-1.1,1.3-1.7,2c30.3,0.9,112.3,3.2,186.4,3.7
			c14.4,0.1,28.4,0.2,41.4,0.2c37.2,0,68.5-0.5,93-1.4c23.7-0.9,41.6-2.2,53.1-4c10.5-1.6,10.4-2.2,13.2-3.6
			C440.1,226.1,449.5,204.6,448.7,197.4z"/>
		<path class="st0" d="M51.7,230.6c-0.3,0.3-0.5,0.6-0.8,0.9c0,0,0.1-0.1,0.1-0.1C51.2,231.1,51.4,230.8,51.7,230.6z"/>
	</g>
	<g>
		<path class="st0" d="M193.8,161.7l-0.6,0.5c0.1,0,0,1.9,0,1.9c0.2,0.5-1.4,3.8-4.3,8.9c-2.7,4.8-8.2,14.1-12.5,19.8
			c-0.2-0.7-1-1.2-1-2.1v1.7c0.1,1.2,0.3,2.3,0.6,3.2c5.1-6.4,9.9-14.7,12.9-20.3c2.9-5.3,6-7.1,4.6-12.3
			C193.5,163.1,194.9,163,193.8,161.7z"/>
	</g>
	<rect x="23.8" y="231.8" class="st0" width="0.9" height="5.5"/>
	<rect x="28.8" y="231.8" class="st0" width="0.9" height="5.5"/>
	<rect x="33.8" y="230.4" class="st0" width="0.9" height="6.5"/>
	<rect x="38.8" y="230.3" class="st0" width="0.9" height="5.5"/>
	<rect x="43.8" y="225.7" class="st0" width="0.9" height="6.6"/>
	<rect x="48.6" y="219.4" class="st0" width="0.9" height="9"/>
	<rect x="53.3" y="212.6" class="st0" width="0.9" height="9.8"/>
	<rect x="63" y="197.7" class="st0" width="0.9" height="10.6"/>
	<rect x="68.1" y="189.4" class="st0" width="0.9" height="10.8"/>
	<rect x="72.7" y="182.9" class="st0" width="0.9" height="9.1"/>
	<rect x="77.4" y="175.6" class="st0" width="0.9" height="9.6"/>
	<rect x="82" y="168.1" class="st0" width="0.9" height="8.6"/>
	<rect x="86.6" y="161.6" class="st0" width="0.9" height="8.6"/>
	<rect x="91.2" y="154.6" class="st0" width="0.9" height="8.6"/>
	<rect x="95.8" y="147.8" class="st0" width="0.9" height="8.6"/>
	<rect x="100.5" y="142" class="st0" width="0.9" height="8.6"/>
	<rect x="105.1" y="135.7" class="st0" width="0.9" height="8.6"/>
	<rect x="111" y="130.1" class="st0" width="0.9" height="8.6"/>
	<rect x="117.7" y="127.4" class="st0" width="0.9" height="8.6"/>
	<rect x="123.2" y="129.1" class="st0" width="0.9" height="8.6"/>
	<rect x="128.4" y="134.9" class="st0" width="0.9" height="8.6"/>
	<polygon class="st0" points="135.1,210.6 134.2,210.6 134.2,199.2 135.1,201.6 	"/>
	<rect x="138.4" y="207.8" class="st0" width="0.9" height="8.6"/>
	<rect x="143.5" y="210.6" class="st0" width="0.9" height="8.6"/>
	<rect x="148.1" y="210.6" class="st0" width="0.9" height="8.6"/>
	<rect x="153.8" y="210" class="st0" width="0.9" height="8.6"/>
	<rect x="160.5" y="207.8" class="st0" width="0.9" height="8.6"/>
	<rect x="166.6" y="203.5" class="st0" width="0.9" height="8.6"/>
	<rect x="170.2" y="200.1" class="st0" width="0.9" height="8.6"/>
	<rect x="172.6" y="153.6" class="st0" width="0.9" height="8.6"/>
	<rect x="176.7" y="147.3" class="st0" width="0.9" height="8.6"/>
	<rect x="182" y="143.5" class="st0" width="0.9" height="8.6"/>
	<rect x="187.3" y="142.2" class="st0" width="0.9" height="8.6"/>
	<rect x="192.5" y="144.4" class="st0" width="0.9" height="8.6"/>
	<rect x="184.4" y="200.1" class="st0" width="0.9" height="8.6"/>
	<rect x="178.6" y="189.9" class="st0" width="0.9" height="8.6"/>
	<rect x="182.5" y="184.7" class="st0" width="0.9" height="8.6"/>
	<rect x="186.2" y="178.3" class="st0" width="0.9" height="8.6"/>
	<rect x="189.7" y="171.9" class="st0" width="0.9" height="9.7"/>
	<rect x="189.7" y="201" class="st0" width="0.9" height="8.6"/>
	<rect x="194.7" y="198.5" class="st0" width="0.9" height="8.6"/>
	<rect x="199" y="194.2" class="st0" width="0.9" height="8.6"/>
	<rect x="203" y="188.7" class="st0" width="0.9" height="8.6"/>
	<rect x="206.8" y="182.8" class="st0" width="0.9" height="8.6"/>
	<rect x="210.9" y="177" class="st0" width="0.9" height="8.6"/>
	<rect x="215.4" y="171.1" class="st0" width="0.9" height="8.6"/>
	<rect x="220.1" y="164.9" class="st0" width="0.9" height="8.6"/>
	<rect x="224.6" y="157" class="st0" width="0.9" height="8.6"/>
	<rect x="229.6" y="150.7" class="st0" width="0.9" height="8.6"/>
	<rect x="233.8" y="141.7" class="st0" width="0.9" height="10.7"/>
	<rect x="246.4" y="114.1" class="st0" width="0.9" height="10.7"/>
	<rect x="251.7" y="107.9" class="st0" width="0.9" height="10.7"/>
	<rect x="257.1" y="102.6" class="st0" width="0.9" height="10.7"/>
	<rect x="262.4" y="98.1" class="st0" width="0.9" height="10.7"/>
	<rect x="267.7" y="94.1" class="st0" width="0.9" height="10.7"/>
	<rect x="273" y="88.8" class="st0" width="0.9" height="10.7"/>
	<rect x="278.3" y="85.6" class="st0" width="0.9" height="10.7"/>
	<rect x="311.7" y="184.4" class="st0" width="0.9" height="10.7"/>
	<rect x="300.7" y="172.3" class="st0" width="0.9" height="10.7"/>
	<rect x="293.8" y="166.7" class="st0" width="0.9" height="10.7"/>
	<rect x="286.2" y="165" class="st0" width="0.9" height="10.7"/>
	<rect x="279.5" y="167.4" class="st0" width="0.9" height="10.7"/>
	<rect x="273.4" y="171.5" class="st0" width="0.9" height="10.7"/>
	<rect x="268.8" y="178.1" class="st0" width="0.9" height="10.7"/>
	<rect x="273.8" y="206.9" class="st0" width="0.9" height="10.7"/>
	<rect x="279.5" y="212.8" class="st0" width="0.9" height="10.7"/>
	<rect x="286.2" y="215.9" class="st0" width="0.9" height="10.7"/>
	<rect x="293.8" y="212.8" class="st0" width="0.9" height="10.7"/>
	<rect x="298.4" y="205.3" class="st0" width="0.9" height="10.7"/>
	<rect x="318.3" y="189.2" class="st0" width="0.9" height="10.7"/>
	<rect x="325" y="191.6" class="st0" width="0.9" height="10.7"/>
	<rect x="331.8" y="190" class="st0" width="0.9" height="10.7"/>
	<rect x="338.9" y="185.8" class="st0" width="0.9" height="10.7"/>
	<rect x="346" y="179.1" class="st0" width="0.9" height="10.7"/>
	<rect x="353.1" y="171.9" class="st0" width="0.9" height="10.7"/>
	<rect x="360.3" y="162.1" class="st0" width="0.9" height="10.7"/>
	<rect x="366.6" y="153.9" class="st0" width="0.9" height="10.7"/>
	<rect x="372.7" y="145.5" class="st0" width="0.9" height="10.7"/>
	<rect x="379.5" y="137.7" class="st0" width="0.9" height="10.7"/>
	<rect x="385.7" y="131.3" class="st0" width="0.9" height="10.7"/>
	<rect x="391.6" y="125.9" class="st0" width="0.9" height="10.7"/>
	<rect x="398" y="121.4" class="st0" width="0.9" height="10.7"/>
	<rect x="405.8" y="116.9" class="st0" width="0.9" height="10.7"/>
	<rect x="413.3" y="114.7" class="st0" width="0.9" height="10.7"/>
	<rect x="419.8" y="114.7" class="st0" width="0.9" height="10.7"/>
	<rect x="426.4" y="116.9" class="st0" width="0.9" height="10.7"/>
	<rect x="432.2" y="122.7" class="st0" width="0.9" height="9.8"/>
	<rect x="398" y="180.7" class="st0" width="0.9" height="10.7"/>
	<rect x="406.3" y="180.7" class="st0" width="0.9" height="10.7"/>
	<rect x="414.7" y="179.3" class="st0" width="0.9" height="10.7"/>
	<rect x="422.4" y="178.2" class="st0" width="0.9" height="10.7"/>
	<rect x="428.8" y="178.2" class="st0" width="0.9" height="10.7"/>
	<rect x="436.4" y="179.3" class="st0" width="0.9" height="10.7"/>
	<rect x="443" y="180.7" class="st0" width="0.9" height="10.7"/>
	<rect x="448.8" y="185.4" class="st0" width="0.9" height="10.7"/>
	<rect x="444.7" y="211" class="st0" width="0.9" height="10.7"/>
	<rect x="441.4" y="218.6" class="st0" width="0.9" height="10.7"/>
	<rect x="436" y="226.7" class="st0" width="0.9" height="10.7"/>
	<rect x="427.9" y="229.3" class="st0" width="0.9" height="10.7"/>
	<rect x="418.4" y="231.3" class="st0" width="0.9" height="10.7"/>
	<rect x="408.7" y="232" class="st0" width="0.9" height="10.7"/>
	<rect x="399" y="232.7" class="st0" width="0.9" height="10.7"/>
	<rect x="389.3" y="233.4" class="st0" width="0.9" height="10.7"/>
	<rect x="379.6" y="234.1" class="st0" width="0.9" height="10.7"/>
	<rect x="369.9" y="234.4" class="st0" width="0.9" height="10.7"/>
	<rect x="360.2" y="235.5" class="st0" width="0.9" height="10.7"/>
	<rect x="349.5" y="235.3" class="st0" width="0.9" height="10.7"/>
	<rect x="340.8" y="237" class="st0" width="0.9" height="10.7"/>
	<rect x="332.6" y="235.3" class="st0" width="0.9" height="10.7"/>
	<rect x="321.7" y="235.3" class="st0" width="0.9" height="10.7"/>
	<rect x="311.7" y="236.1" class="st0" width="0.9" height="10.7"/>
	<rect x="302" y="236.1" class="st0" width="0.9" height="10.7"/>
	<rect x="292.3" y="236.1" class="st0" width="0.9" height="10.7"/>
	<rect x="282.6" y="236.8" class="st0" width="0.9" height="10.7"/>
	<rect x="272.9" y="236.8" class="st0" width="0.9" height="10.7"/>
	<rect x="263.1" y="236.7" class="st0" width="0.9" height="10.7"/>
	<rect x="253.7" y="236.1" class="st0" width="0.9" height="10.7"/>
	<rect x="244" y="236.1" class="st0" width="0.9" height="10.7"/>
	<rect x="234.3" y="235.8" class="st0" width="0.9" height="10.7"/>
	<rect x="224.6" y="235.6" class="st0" width="0.9" height="10.7"/>
	<rect x="213.1" y="235.7" class="st0" width="0.9" height="10.7"/>
	<rect x="203.4" y="236" class="st0" width="0.9" height="10.7"/>
	<rect x="193.8" y="235.7" class="st0" width="0.9" height="10.7"/>
	<rect x="184" y="235.6" class="st0" width="0.9" height="10.7"/>
	<rect x="172.3" y="234.6" class="st0" width="0.9" height="10.7"/>
	<rect x="161.6" y="235.3" class="st0" width="0.9" height="10.7"/>
	<rect x="151.9" y="235.3" class="st0" width="0.9" height="10.7"/>
	<rect x="142.2" y="235.3" class="st0" width="0.9" height="10.7"/>
	<rect x="130.5" y="234.3" class="st0" width="0.9" height="10.7"/>
	<rect x="119.8" y="234.2" class="st0" width="0.9" height="10.7"/>
	<rect x="110.1" y="234.2" class="st0" width="0.9" height="10.7"/>
	<rect x="100.4" y="234.2" class="st0" width="0.9" height="10.7"/>
	<rect x="88.7" y="233.9" class="st0" width="0.9" height="10.7"/>
	<rect x="78" y="233.2" class="st0" width="0.9" height="10.7"/>
	<rect x="68.3" y="232.4" class="st0" width="0.9" height="10.7"/>
	<rect x="58.6" y="233.1" class="st0" width="0.9" height="10.7"/>
	<rect x="285.1" y="80.6" class="st0" width="0.9" height="10.7"/>
	<rect x="291.7" y="76.7" class="st0" width="0.9" height="10.7"/>
	<rect x="230.1" y="88.8" class="st0" width="0.9" height="10.7"/>
	<rect x="233.8" y="126.2" class="st0" width="0.9" height="10.7"/>
	<rect x="229.6" y="132.7" class="st0" width="0.9" height="10.7"/>
	<rect x="225.1" y="142.2" class="st0" width="0.9" height="10.7"/>
	<rect x="217.8" y="146.9" class="st0" width="0.9" height="10.7"/>
	<rect x="210.5" y="140.4" class="st0" width="0.9" height="10.7"/>
	<rect x="206.1" y="132.4" class="st0" width="0.9" height="11.3"/>
	<rect x="224.6" y="84.6" class="st0" width="0.9" height="10.7"/>
	<rect x="218.6" y="84.6" class="st0" width="0.9" height="10.7"/>
	<rect x="211.8" y="86.1" class="st0" width="0.9" height="10.7"/>
	<rect x="206.6" y="89.9" class="st0" width="0.9" height="10.7"/>
	<rect x="202.4" y="95.9" class="st0" width="0.9" height="10.7"/>
	<rect x="196.1" y="150.1" class="st0" width="0.9" height="11.5"/>
	<rect x="131.6" y="143.2" class="st0" width="0.9" height="18.7"/>
	<rect x="58.1" y="205.5" class="st0" width="0.9" height="13.6"/>
	<path class="st0" d="M26.8,232.2c-3.6,0-6.5-0.3-6.8-0.3l0.1-1.7c0.2,0,16.9,1.7,21.8-3c4.2-3.9,9.3-11.9,18.7-26.3
		c2.1-3.3,4.5-6.9,7.1-10.9c2.5-3.8,5.1-7.8,7.6-11.7c13.8-21.3,28.1-43.4,34.8-47.8c6.5-4.3,12.2-4.4,16.4-0.2
		c4.2,4.2,6.8,12.4,7.3,23.2l-1,0.2c-0.4-10.2-2.8-18-6.8-22c-3.9-3.9-9.3-3.8-15.5,0.3c-6.5,4.3-20.7,26.2-34.4,47.4
		c-2.6,4-5.1,7.9-7.6,11.7c-2.6,4-4.9,7.6-7.1,10.9c-9.4,14.5-14.6,22.5-18.9,26.5C39.4,231.6,32.2,232.2,26.8,232.2z"/>
	<path class="st0" d="M44.7,241.8l-0.9-9.5c3.6-1.7,19-25.9,30.2-43.9c15.5-24.9,30.2-48.5,38.1-53.8c5.1-3.4,9.6-3.3,13.3,0
		c6.6,5.9,7.2,20.7,7.3,21.3c0,0-5.2,2.1-5.3,0.1c-0.1-2-1.8-9.8-5.1-12.8c-2-1.8-4.7-1.6-7.9,0.5c-6.8,4.5-22.4,29.5-36.1,51.6
		C60.5,224.1,50.1,240.4,44.7,241.8z"/>
</g>
</svg>
