<?xml version="1.0" encoding="utf-8"?>
<!-- Generator: Adobe Illustrator 20.0.0, SVG Export Plug-In . SVG Version: 6.00 Build 0)  -->
<svg version="1.1" id="Layer_1" xmlns="http://www.w3.org/2000/svg" xmlns:xlink="http://www.w3.org/1999/xlink" x="0px" y="0px"
	 viewBox="0 0 474 347.8" style="enable-background:new 0 0 474 347.8;" xml:space="preserve">
<style type="text/css">
	.st0{fill:#FFFFFF;}
</style>
<g>
	<path class="st0" d="M299.4,141H174.6c-2.8,0-5,2.2-5,5c0,2.8,2.2,5,5,5h124.7c2.8,0,5-2.2,5-5C304.4,143.2,302.1,141,299.4,141
		L299.4,141z"/>
	<path class="st0" d="M122.5,163.6H104c-2.8,0-5,2.2-5,5s2.2,5,5,5h18.5c9.1,0,16.8,6.2,19,14.7h-36.2c-2.8,0-5,2.2-5,5s2.2,5,5,5
		h41.9c2.8,0,5-2.2,5-5C152.2,176.9,138.9,163.6,122.5,163.6z"/>
	<path class="st0" d="M351.5,173.6h18.5c2.8,0,5-2.2,5-5s-2.2-5-5-5h-18.5c-16.4,0-29.7,13.3-29.7,29.7c0,2.8,2.2,5,5,5h41.9
		c2.8,0,5-2.2,5-5s-2.2-5-5-5h-36.2C334.6,179.9,342.3,173.6,351.5,173.6z"/>
	<path class="st0" d="M384.7,141.6c-7-7.3-16.5-11.4-26.8-11.4c-0.4,0-0.9,0.1-1.3,0.2l-16.1,4.4l-23.7-45.5
		c-4.2-8.1-14.7-14.5-23.9-14.5H181c-9.2,0-19.7,6.4-23.9,14.5l-23.7,45.5l-16.1-4.4c-0.4-0.1-0.9-0.2-1.3-0.2
		c-10.3,0-19.8,4-26.8,11.4c-7,7.3-10.6,17-10.2,27.3l3.6,72.3c0.1,2.7,2.3,4.7,5,4.7h1.7v21.8c0,2.8,2.2,5,5,5H147c2.8,0,5-2.2,5-5
		V261c0-2.8-2.2-5-5-5s-5,2.2-5,5v1.8H99.4V246h275.3v16.8H332V261c0-2.8-2.2-5-5-5s-5,2.2-5,5v6.8c0,2.8,2.2,5,5,5h52.6
		c2.8,0,5-2.2,5-5V246h1.7c2.7,0,4.9-2.1,5-4.7l3.6-72.4C395.4,158.7,391.8,149,384.7,141.6L384.7,141.6z M384.9,168.4l-3.4,67.6
		H92.4l-3.4-67.5c-0.3-7.5,2.3-14.6,7.4-19.9c5-5.2,11.7-8.1,18.9-8.3l19.2,5.3c0,0,0,0,0,0l18.7,5.2c2.7,0.7,5.4-0.8,6.1-3.5
		c0.7-2.7-0.8-5.4-3.5-6.1l-12.7-3.5L166,94.1c2.5-4.9,9.6-9.1,15.1-9.1h112c5.5,0,12.5,4.3,15.1,9.1l22.7,43.6l-12.7,3.5
		c-2.7,0.7-4.2,3.5-3.5,6.1c0.7,2.7,3.5,4.2,6.1,3.5l37.9-10.5c7.3,0.2,14,3.1,18.9,8.3C382.6,153.9,385.3,161,384.9,168.4z"/>
	<path class="st0" d="M358,120.3h17.4c2.8,0,5-2.2,5-5s-2.2-5-5-5H358c-2.8,0-5,2.2-5,5S355.2,120.3,358,120.3z"/>
	<path class="st0" d="M98.6,120.3H116c2.8,0,5-2.2,5-5s-2.2-5-5-5H98.6c-2.8,0-5,2.2-5,5S95.9,120.3,98.6,120.3z"/>
	<path class="st0" d="M292.4,202.7H181.5c-2.8,0-5,2.2-5,5V221c0,2.8,2.2,5,5,5s5-2.2,5-5v-8.4h100.9v8.4c0,2.8,2.2,5,5,5s5-2.2,5-5
		v-13.4C297.4,204.9,295.2,202.7,292.4,202.7z"/>
	<path class="st0" d="M264.7,177.6c2.8,0,5-2.2,5-5s-2.2-5-5-5h-55.4c-2.8,0-5,2.2-5,5s2.2,5,5,5H264.7z"/>
</g>
</svg>
