<?xml version="1.0" encoding="utf-8"?>
<!-- Generator: Adobe Illustrator 20.0.0, SVG Export Plug-In . SVG Version: 6.00 Build 0)  -->
<svg version="1.1" id="Layer_1" xmlns="http://www.w3.org/2000/svg" xmlns:xlink="http://www.w3.org/1999/xlink" x="0px" y="0px"
	 viewBox="0 0 474 347.8" style="enable-background:new 0 0 474 347.8;" xml:space="preserve">
<style type="text/css">
	.st0{display:none;fill:#EAEAEA;}
	.st1{display:none;}
	.st2{display:inline;fill:#FFFFFF;}
	.st3{fill:#FFFFFF;}
	.st4{fill:none;stroke:#FFFFFF;stroke-width:5;stroke-miterlimit:10;}
</style>
<rect class="st0" width="474" height="347.8"/>
<g class="st1">
	<path class="st2" d="M299.4,141H174.6c-2.8,0-5,2.2-5,5c0,2.8,2.2,5,5,5h124.7c2.8,0,5-2.2,5-5C304.4,143.2,302.1,141,299.4,141
		L299.4,141z"/>
	<path class="st2" d="M122.5,163.6H104c-2.8,0-5,2.2-5,5s2.2,5,5,5h18.5c9.1,0,16.8,6.2,19,14.7h-36.2c-2.8,0-5,2.2-5,5s2.2,5,5,5
		h41.9c2.8,0,5-2.2,5-5C152.2,176.9,138.9,163.6,122.5,163.6z"/>
	<path class="st2" d="M351.5,173.6h18.5c2.8,0,5-2.2,5-5s-2.2-5-5-5h-18.5c-16.4,0-29.7,13.3-29.7,29.7c0,2.8,2.2,5,5,5h41.9
		c2.8,0,5-2.2,5-5s-2.2-5-5-5h-36.2C334.6,179.9,342.3,173.6,351.5,173.6z"/>
	<path class="st2" d="M384.7,141.6c-7-7.3-16.5-11.4-26.8-11.4c-0.4,0-0.9,0.1-1.3,0.2l-16.1,4.4l-23.7-45.5
		c-4.2-8.1-14.7-14.5-23.9-14.5H181c-9.2,0-19.7,6.4-23.9,14.5l-23.7,45.5l-16.1-4.4c-0.4-0.1-0.9-0.2-1.3-0.2
		c-10.3,0-19.8,4-26.8,11.4c-7,7.3-10.6,17-10.2,27.3l3.6,72.3c0.1,2.7,2.3,4.7,5,4.7h1.7v21.8c0,2.8,2.2,5,5,5H147c2.8,0,5-2.2,5-5
		V261c0-2.8-2.2-5-5-5s-5,2.2-5,5v1.8H99.4V246h275.3v16.8H332V261c0-2.8-2.2-5-5-5s-5,2.2-5,5v6.8c0,2.8,2.2,5,5,5h52.6
		c2.8,0,5-2.2,5-5V246h1.7c2.7,0,4.9-2.1,5-4.7l3.6-72.4C395.4,158.7,391.8,149,384.7,141.6L384.7,141.6z M384.9,168.4l-3.4,67.6
		H92.4l-3.4-67.5c-0.3-7.5,2.3-14.6,7.4-19.9c5-5.2,11.7-8.1,18.9-8.3l19.2,5.3c0,0,0,0,0,0l18.7,5.2c2.7,0.7,5.4-0.8,6.1-3.5
		c0.7-2.7-0.8-5.4-3.5-6.1l-12.7-3.5L166,94.1c2.5-4.9,9.6-9.1,15.1-9.1h112c5.5,0,12.5,4.3,15.1,9.1l22.7,43.6l-12.7,3.5
		c-2.7,0.7-4.2,3.5-3.5,6.1c0.7,2.7,3.5,4.2,6.1,3.5l37.9-10.5c7.3,0.2,14,3.1,18.9,8.3C382.6,153.9,385.3,161,384.9,168.4z"/>
	<path class="st2" d="M358,120.3h17.4c2.8,0,5-2.2,5-5s-2.2-5-5-5H358c-2.8,0-5,2.2-5,5S355.2,120.3,358,120.3z"/>
	<path class="st2" d="M98.6,120.3H116c2.8,0,5-2.2,5-5s-2.2-5-5-5H98.6c-2.8,0-5,2.2-5,5S95.9,120.3,98.6,120.3z"/>
	<path class="st2" d="M292.4,202.7H181.5c-2.8,0-5,2.2-5,5V221c0,2.8,2.2,5,5,5s5-2.2,5-5v-8.4h100.9v8.4c0,2.8,2.2,5,5,5s5-2.2,5-5
		v-13.4C297.4,204.9,295.2,202.7,292.4,202.7z"/>
	<path class="st2" d="M264.7,177.6c2.8,0,5-2.2,5-5s-2.2-5-5-5h-55.4c-2.8,0-5,2.2-5,5s2.2,5,5,5H264.7z"/>
</g>
<g>
	<g>
		<path class="st3" d="M313.5,134c-30.8-1.8-84.3-7.2-98.6-5.4c-14.4,1.8-41.9,15-51,18.3c14.9,3,35,5.9,52.2,3.8
			C237.8,148.2,282.2,140.4,313.5,134z"/>
		<path class="st4" d="M426.5,105.4c-1.5,1.1-7.6,4.5-10.9,5c-3.3,0.5-19.5,4.6-19.5,4.6s3.8-4.5-1.3-1.3
			c-5.1,3.2-20.6,6.5-22.1,7.8c-1.5,1.3-3.7,3.3-3.7,3.3c-0.9,2.9,4.1,2.5,8.1,1.1c4-1.5,9.4-2.7,8.5-1.8c-0.7,0.8-5.6,5.3-8.3,7.2
			c-12-0.7-23.3,0.9-33.7,2.1c-24.3,6.8-97.9,20.1-126.8,23.5c-4.4,0.5-8.9,0.8-13.5,0.8c-23.8,0-48.7-6.2-58.7-8.9
			c-57.3,0-98.1,45.4-98.1,45.4s-2.5,3,1.8,5.5c4.3,2.5,1.3,12,2.7,14.2c1.4,2.2,0.4,4.6,3.6,5.5c2.7,0.8,32.4,4.7,44.7,6.2
			c-2.7-5.5-4.2-11.6-4.2-18.1c0-22.8,18.6-41.4,41.4-41.4c22.8,0,41.4,18.6,41.4,41.4c0,7.1-1.8,13.9-5,19.7
			c4.3-1.1,9.1-2.4,14.7-3.9c21.5-5.5,72.9-12,74.2-11.2c1.3,0.8,5.6,2.2,5.6,2.2c8.9,1.9,59.4-2.2,59.4-2.2
			c2.4,0,11.4,1.7,17.6,2.8c-5-7.6-7.9-16.6-7.9-26.3c0-26.4,21.5-47.9,47.9-47.9c13.3,0,25.3,5.4,34,14.2c2.8-1.1,3.9-3.2,3.9-3.2
			l-3.8-6.9c-5.1-3.4-10.2-5.9-15.2-7.9l6.3-18.3c3.8,0.1,14.1-9.3,16.7-10.7C429.2,106.6,428,104.4,426.5,105.4z M385.9,132.2
			c10.4-7.7,11.6-5.9,9.9-2.9c-1,1.8-1.7,3.3-2.2,4.4C390.9,133.1,388.4,132.6,385.9,132.2z"/>
		<path class="st4" d="M136.7,172.3c-19.4,0-35.2,15.7-35.2,35.2c0,6.7,1.9,13,5.2,18.3c6.2,10.1,17.3,16.8,30,16.8
			c11.2,0,21.2-5.3,27.6-13.5c4.7-6,7.5-13.5,7.5-21.7C171.8,188.1,156.1,172.3,136.7,172.3z"/>
		<path class="st4" d="M384.6,147.1c-23,0-41.7,18.7-41.7,41.7c0,10.1,3.6,19.3,9.5,26.5c7.6,9.3,19.2,15.2,32.2,15.2
			c23,0,41.7-18.7,41.7-41.7c0-11.9-5-22.6-12.9-30.2C405.8,151.5,395.7,147.1,384.6,147.1z"/>
	</g>
</g>
</svg>
